<mxfile host="app.diagrams.net" agent="Mozilla/5.0 (Windows NT 10.0; Win64; x64) AppleWebKit/537.36 (KHTML, like Gecko) Chrome/141.0.0.0 Safari/537.36" version="28.2.5">
  <diagram name="Page-1" id="gHEClbTnxlHgqFP3nz2F">
    <mxGraphModel dx="872" dy="431" grid="1" gridSize="10" guides="1" tooltips="1" connect="1" arrows="1" fold="1" page="1" pageScale="1" pageWidth="827" pageHeight="1169" math="0" shadow="0">
      <root>
        <mxCell id="0" />
        <mxCell id="1" parent="0" />
        <mxCell id="BcaVDK_PR50FUNii-7ZA-17" style="edgeStyle=orthogonalEdgeStyle;rounded=0;orthogonalLoop=1;jettySize=auto;html=1;entryX=0.5;entryY=0;entryDx=0;entryDy=0;" edge="1" parent="1" source="aZT-aPpyfwkHjN3IkPu0-1" target="BcaVDK_PR50FUNii-7ZA-2">
          <mxGeometry relative="1" as="geometry" />
        </mxCell>
        <mxCell id="aZT-aPpyfwkHjN3IkPu0-1" value="&lt;font style=&quot;font-size: 15px;&quot;&gt;เริ่มต้น&lt;/font&gt;" style="ellipse;whiteSpace=wrap;html=1;" parent="1" vertex="1">
          <mxGeometry x="385" y="10" width="120" height="80" as="geometry" />
        </mxCell>
        <mxCell id="lp9bg5CuKxctWa9kOgLU-7" value="&lt;font style=&quot;font-size: 17px;&quot;&gt;จบการทำงาน&lt;/font&gt;" style="ellipse;whiteSpace=wrap;html=1;" parent="1" vertex="1">
          <mxGeometry x="385" y="790" width="120" height="80" as="geometry" />
        </mxCell>
        <mxCell id="BcaVDK_PR50FUNii-7ZA-16" style="edgeStyle=orthogonalEdgeStyle;rounded=0;orthogonalLoop=1;jettySize=auto;html=1;entryX=0.5;entryY=0;entryDx=0;entryDy=0;" edge="1" parent="1" source="BcaVDK_PR50FUNii-7ZA-2" target="BcaVDK_PR50FUNii-7ZA-3">
          <mxGeometry relative="1" as="geometry" />
        </mxCell>
        <mxCell id="BcaVDK_PR50FUNii-7ZA-2" value="&lt;span style=&quot;font-size: 15px;&quot;&gt;รับค่า N จากผู้ใช้&lt;/span&gt;" style="rounded=0;whiteSpace=wrap;html=1;" vertex="1" parent="1">
          <mxGeometry x="376" y="140" width="138" height="60" as="geometry" />
        </mxCell>
        <mxCell id="BcaVDK_PR50FUNii-7ZA-23" style="edgeStyle=orthogonalEdgeStyle;rounded=0;orthogonalLoop=1;jettySize=auto;html=1;entryX=0.5;entryY=0;entryDx=0;entryDy=0;" edge="1" parent="1" source="BcaVDK_PR50FUNii-7ZA-3" target="BcaVDK_PR50FUNii-7ZA-18">
          <mxGeometry relative="1" as="geometry" />
        </mxCell>
        <mxCell id="BcaVDK_PR50FUNii-7ZA-25" style="edgeStyle=orthogonalEdgeStyle;rounded=0;orthogonalLoop=1;jettySize=auto;html=1;entryX=0.5;entryY=0;entryDx=0;entryDy=0;" edge="1" parent="1" source="BcaVDK_PR50FUNii-7ZA-3" target="BcaVDK_PR50FUNii-7ZA-19">
          <mxGeometry relative="1" as="geometry" />
        </mxCell>
        <mxCell id="BcaVDK_PR50FUNii-7ZA-3" value="&lt;font style=&quot;font-size: 16px;&quot;&gt;ตรวจว่า N เป็นเลขคี่หรือไม่&lt;/font&gt;" style="rounded=0;whiteSpace=wrap;html=1;" vertex="1" parent="1">
          <mxGeometry x="370" y="280" width="150" height="60" as="geometry" />
        </mxCell>
        <mxCell id="BcaVDK_PR50FUNii-7ZA-24" style="edgeStyle=orthogonalEdgeStyle;rounded=0;orthogonalLoop=1;jettySize=auto;html=1;entryX=0.5;entryY=0;entryDx=0;entryDy=0;" edge="1" parent="1" source="BcaVDK_PR50FUNii-7ZA-18" target="BcaVDK_PR50FUNii-7ZA-20">
          <mxGeometry relative="1" as="geometry" />
        </mxCell>
        <mxCell id="BcaVDK_PR50FUNii-7ZA-18" value="ใช่ (คี่)&amp;nbsp; &amp;nbsp;" style="rounded=0;whiteSpace=wrap;html=1;" vertex="1" parent="1">
          <mxGeometry x="240" y="380" width="120" height="60" as="geometry" />
        </mxCell>
        <mxCell id="BcaVDK_PR50FUNii-7ZA-26" style="edgeStyle=orthogonalEdgeStyle;rounded=0;orthogonalLoop=1;jettySize=auto;html=1;entryX=0.5;entryY=0;entryDx=0;entryDy=0;" edge="1" parent="1" source="BcaVDK_PR50FUNii-7ZA-19" target="BcaVDK_PR50FUNii-7ZA-21">
          <mxGeometry relative="1" as="geometry" />
        </mxCell>
        <mxCell id="BcaVDK_PR50FUNii-7ZA-19" value="ไม่ใช่ (คู่)&amp;nbsp; &amp;nbsp;" style="rounded=0;whiteSpace=wrap;html=1;" vertex="1" parent="1">
          <mxGeometry x="540" y="380" width="120" height="60" as="geometry" />
        </mxCell>
        <mxCell id="BcaVDK_PR50FUNii-7ZA-27" style="edgeStyle=orthogonalEdgeStyle;rounded=0;orthogonalLoop=1;jettySize=auto;html=1;entryX=0;entryY=0.5;entryDx=0;entryDy=0;" edge="1" parent="1" source="BcaVDK_PR50FUNii-7ZA-20" target="BcaVDK_PR50FUNii-7ZA-22">
          <mxGeometry relative="1" as="geometry">
            <Array as="points">
              <mxPoint x="300" y="670" />
            </Array>
          </mxGeometry>
        </mxCell>
        <mxCell id="BcaVDK_PR50FUNii-7ZA-20" value="&lt;font style=&quot;font-size: 15px;&quot;&gt;วนลูป i = 1 ถึง N&lt;/font&gt;&lt;div&gt;&lt;font style=&quot;font-size: 15px;&quot;&gt;เพิ่มครั้งละ 2&lt;/font&gt;&lt;/div&gt;&lt;div&gt;&lt;font style=&quot;font-size: 15px;&quot;&gt;พิมพ์ i&amp;nbsp; &amp;nbsp;&lt;/font&gt;&lt;/div&gt;" style="rounded=1;whiteSpace=wrap;html=1;" vertex="1" parent="1">
          <mxGeometry x="240" y="510" width="120" height="60" as="geometry" />
        </mxCell>
        <mxCell id="BcaVDK_PR50FUNii-7ZA-28" style="edgeStyle=orthogonalEdgeStyle;rounded=0;orthogonalLoop=1;jettySize=auto;html=1;entryX=1;entryY=0.5;entryDx=0;entryDy=0;" edge="1" parent="1" source="BcaVDK_PR50FUNii-7ZA-21" target="BcaVDK_PR50FUNii-7ZA-22">
          <mxGeometry relative="1" as="geometry">
            <Array as="points">
              <mxPoint x="600" y="670" />
            </Array>
          </mxGeometry>
        </mxCell>
        <mxCell id="BcaVDK_PR50FUNii-7ZA-21" value="&lt;font style=&quot;font-size: 15px;&quot;&gt;วนลูป i = N ถึง 0&lt;/font&gt;&lt;div&gt;&lt;font style=&quot;font-size: 15px;&quot;&gt;ลดครั้งละ 2&lt;/font&gt;&lt;/div&gt;&lt;div&gt;&lt;font style=&quot;font-size: 15px;&quot;&gt;พิมพ์ i&amp;nbsp;&lt;/font&gt;&lt;/div&gt;" style="rounded=1;whiteSpace=wrap;html=1;" vertex="1" parent="1">
          <mxGeometry x="540" y="510" width="120" height="60" as="geometry" />
        </mxCell>
        <mxCell id="BcaVDK_PR50FUNii-7ZA-29" style="edgeStyle=orthogonalEdgeStyle;rounded=0;orthogonalLoop=1;jettySize=auto;html=1;entryX=0.5;entryY=0;entryDx=0;entryDy=0;" edge="1" parent="1" source="BcaVDK_PR50FUNii-7ZA-22" target="lp9bg5CuKxctWa9kOgLU-7">
          <mxGeometry relative="1" as="geometry" />
        </mxCell>
        <mxCell id="BcaVDK_PR50FUNii-7ZA-22" value="&lt;font style=&quot;font-size: 15px;&quot;&gt;แสดงผลลัพธ์&lt;/font&gt;&amp;nbsp;" style="rounded=0;whiteSpace=wrap;html=1;" vertex="1" parent="1">
          <mxGeometry x="385" y="640" width="120" height="60" as="geometry" />
        </mxCell>
      </root>
    </mxGraphModel>
  </diagram>
</mxfile>
